# File created by Blade
# Date/Time:  Tue Apr 07 20:22:14 2015
# Frame Rate: 120.000 fps
#------------------------------------------------------
:FULLY-SPECIFIED
:DEGREES
2171
root 1.527130 32.867528 -8.944066 17.288602 3.232337 0.116032
Spine -15.504799 -6.187430 -0.211409
Head 5.170483 -6.303379 1.279503
LeftShoulder -14.533953 43.555187 10.745320
LeftArm 57.318286 12.628120 -77.342759
LeftForeArm 24.295777 -0.000000 107.068111
LeftHand -7.527457 -0.000000 -15.599446
LeftHandThumb1 -26.253704 0.000000 33.147579
RightShoulder -4.637086 -9.871287 -17.084033
RightArm 12.444114 -12.555923 89.145602
RightForeArm -25.995850 -0.000000 104.647086
RightHand -3.867009 -0.000000 12.341003
RightHandThumb1 -24.326973 -0.000000 -32.862282
LeftUpLeg -15.433724 -3.215722 0.970136
LeftLeg 1.861202 -0.000000 -0.000000
LeftFoot -5.216084 5.075965 -17.028240
LeftToeBase -6.157918 -0.000000 0.000000
RightUpLeg -11.400143 -5.883520 1.080881
RightLeg -2.963490 -0.000000 0.000000
RightFoot -6.262917 -6.188665 6.742806
RightToeBase 1.309185 -0.000000 -0.000000
2172
root 1.523091 32.865994 -8.950383 17.312538 3.247393 0.118725
Spine -15.486562 -6.169089 -0.188243
Head 5.172887 -6.275950 1.228000
LeftShoulder -14.447035 43.507623 10.806258
LeftArm 57.174092 12.634813 -77.395169
LeftForeArm 24.351685 -0.000000 107.015160
LeftHand -7.594406 -0.000000 -15.592460
LeftHandThumb1 -26.253704 0.000000 33.147579
RightShoulder -4.644135 -9.891496 -17.075322
RightArm 12.486869 -12.617157 89.100540
RightForeArm -25.975291 -0.000000 104.562313
RightHand -3.738668 0.000000 12.319049
RightHandThumb1 -24.326973 -0.000000 -32.862282
LeftUpLeg -15.456077 -3.212311 0.976069
LeftLeg 1.833494 -0.000000 -0.000000
LeftFoot -5.210217 5.060260 -17.039793
LeftToeBase -6.137229 -0.000000 0.000000
RightUpLeg -11.395876 -5.821553 1.068939
RightLeg -3.036511 -0.000000 0.000000
RightFoot -6.254758 -6.229531 6.810551
RightToeBase 1.344787 -0.000000 -0.000000
2173
root 1.521834 32.865011 -8.954893 17.324782 3.247694 0.132964
Spine -15.451095 -6.144718 -0.179812
Head 5.144565 -6.256196 1.204121
LeftShoulder -14.447544 43.546469 10.774010
LeftArm 57.149335 12.642776 -77.398475
LeftForeArm 24.349091 -0.000000 106.923398
LeftHand -7.502645 -0.000000 -15.684557
LeftHandThumb1 -26.253704 0.000000 33.147579
RightShoulder -4.661603 -9.907049 -17.047808
RightArm 12.533522 -12.706773 89.008169
RightForeArm -25.962451 0.000000 104.471819
RightHand -3.638766 0.000000 12.309115
RightHandThumb1 -24.326973 -0.000000 -32.862282
LeftUpLeg -15.448777 -3.222871 0.966035
LeftLeg 1.777657 -0.000000 -0.000000
LeftFoot -5.202995 5.083876 -17.054348
LeftToeBase -6.072343 -0.000000 0.000000
RightUpLeg -11.444771 -5.915029 1.088769
RightLeg -2.982590 -0.000000 0.000000
RightFoot -6.284312 -6.192422 6.690054
RightToeBase 1.264190 -0.000000 -0.000000
2174
root 1.516217 32.863887 -8.959653 17.337624 3.246226 0.139798
Spine -15.418423 -6.119353 -0.178541
Head 5.124408 -6.239789 1.201039
LeftShoulder -14.478680 43.593998 10.735886
LeftArm 57.131068 12.659450 -77.271919
LeftForeArm 24.358983 0.000000 106.813718
LeftHand -7.525544 -0.000000 -15.360880
LeftHandThumb1 -26.253704 0.000000 33.147579
RightShoulder -4.661104 -9.912833 -17.012458
RightArm 12.553051 -12.804048 88.915020
RightForeArm -25.869006 -0.000000 104.352331
RightHand -3.567152 0.000000 12.325032
RightHandThumb1 -24.326973 -0.000000 -32.862282
LeftUpLeg -15.448469 -3.195750 0.964970
LeftLeg 1.733745 -0.000000 -0.000000
LeftFoot -5.176872 5.046500 -17.078762
LeftToeBase -6.099689 -0.000000 0.000000
RightUpLeg -11.425550 -5.819397 1.065154
RightLeg -3.056323 -0.000000 0.000000
RightFoot -6.276559 -6.254951 6.774958
RightToeBase 1.363756 -0.000000 -0.000000
2175
root 1.510901 32.862981 -8.964095 17.354567 3.252939 0.130189
Spine -15.391981 -6.092900 -0.160748
Head 5.091183 -6.223838 1.214690
LeftShoulder -14.480977 43.658912 10.715302
LeftArm 57.124517 12.669310 -77.242845
LeftForeArm 24.345080 -0.000000 106.699984
LeftHand -7.404102 0.000000 -15.497315
LeftHandThumb1 -26.253704 0.000000 33.147579
RightShoulder -4.678362 -9.924831 -16.973185
RightArm 12.575248 -12.915091 88.796708
RightForeArm -25.801962 -0.000000 104.202499
RightHand -3.416131 -0.000000 12.303002
RightHandThumb1 -24.326973 -0.000000 -32.862282
LeftUpLeg -15.453918 -3.180696 0.982345
LeftLeg 1.691569 -0.000000 -0.000000
LeftFoot -5.174621 5.041857 -17.080268
LeftToeBase -6.093262 -0.000000 0.000000
RightUpLeg -11.412814 -5.739323 1.062220
RightLeg -3.127939 -0.000000 0.000000
RightFoot -6.250269 -6.296626 6.837756
RightToeBase 1.364036 -0.000000 -0.000000
2176
root 1.507057 32.861751 -8.967921 17.362509 3.265116 0.137879
Spine -15.353628 -6.101527 -0.147648
Head 5.040079 -6.176781 1.223495
LeftShoulder -14.539228 43.693664 10.654835
LeftArm 57.097859 12.693018 -77.235292
LeftForeArm 24.345759 0.000000 106.566956
LeftHand -7.418735 -0.000000 -15.687548
LeftHandThumb1 -26.253704 0.000000 33.147579
RightShoulder -4.685552 -9.944090 -16.942104
RightArm 12.616927 -13.046738 88.682913
RightForeArm -25.673289 0.000000 104.026222
RightHand -3.392010 -0.000000 12.378734
RightHandThumb1 -24.326973 -0.000000 -32.862282
LeftUpLeg -15.451787 -3.184086 0.983707
LeftLeg 1.656425 -0.000000 -0.000000
LeftFoot -5.175612 5.028471 -17.090324
LeftToeBase -6.024964 -0.000000 0.000000
RightUpLeg -11.426388 -5.756215 1.066946
RightLeg -3.124800 -0.000000 0.000000
RightFoot -6.270057 -6.286724 6.831022
RightToeBase 1.394847 -0.000000 -0.000000
2177
root 1.503861 32.860172 -8.970867 17.374554 3.276533 0.145992
Spine -15.325373 -6.085025 -0.138069
Head 4.980961 -6.162723 1.229939
LeftShoulder -14.553093 43.740527 10.614757
LeftArm 57.075689 12.702902 -77.217820
LeftForeArm 24.446792 -0.000000 106.422786
LeftHand -7.198903 -0.000000 -15.842258
LeftHandThumb1 -26.253704 0.000000 33.147579
RightShoulder -4.711087 -9.945789 -16.915693
RightArm 12.624478 -13.158131 88.572949
RightForeArm -25.602695 -0.000000 103.798678
RightHand -3.180987 0.000000 12.445436
RightHandThumb1 -24.326973 -0.000000 -32.862282
LeftUpLeg -15.449554 -3.193832 0.983039
LeftLeg 1.617056 -0.000000 -0.000000
LeftFoot -5.180610 5.038536 -17.083779
LeftToeBase -6.024742 -0.000000 0.000000
RightUpLeg -11.440285 -5.777256 1.072157
RightLeg -3.123582 -0.000000 0.000000
RightFoot -6.305527 -6.273319 6.839133
RightToeBase 1.388159 -0.000000 -0.000000
